<?xml version="1.0" encoding="utf-8"?>
<!-- Generator: Adobe Illustrator 21.1.0, SVG Export Plug-In . SVG Version: 6.00 Build 0)  -->
<svg version="1.1" id="Layer_1" xmlns="http://www.w3.org/2000/svg" xmlns:xlink="http://www.w3.org/1999/xlink" x="0px" y="0px"
	 viewBox="0 0 841.9 405" style="enable-background:new 0 0 841.9 405;" xml:space="preserve">
<style type="text/css">
	.st0{fill:#231F20;}
</style>
<g>
	<path class="st0" d="M68.6,376.4l1.3-5.8l-41.1-27.9l0.4-1.6l49.1-7.7l1.3-5.8l0.9,0.2l-4.5,20.2l-0.9-0.2l1.6-7.3l-19.1,2.9
		l-3.4,15.2l16,10.8l1.6-7.3l0.9,0.2l-3.2,14.1L68.6,376.4z M36.6,346.8l16.7,11.3l3.2-14.4L36.6,346.8z"/>
	<path class="st0" d="M75.5,300.6l0.3-0.7c2.3,0.5,4.4,0.7,6.2,0.6c1.8-0.1,3.3-0.4,4.6-0.8c1.3-0.5,2.4-1,3.4-1.8
		c0.9-0.7,1.7-1.5,2.4-2.4c0.7-0.9,1.2-1.7,1.6-2.6c0.4-0.9,0.8-1.7,1.1-2.5c0.9-2.2,1.4-4.1,1.4-5.8c0-1.7-0.4-3.1-1-4.4
		c-0.6-1.2-1.4-2.3-2.4-3.1c-1-0.8-2-1.4-2.9-1.8c-1.4-0.6-2.7-0.8-3.9-0.7c-1.2,0.1-2.4,0.4-3.4,0.9c-1,0.5-2,1.2-2.9,2
		c-0.8,0.8-1.6,1.5-2.2,2.3l-5.1,6.2c-2.4,2.9-4.8,4.9-7.2,5.9c-2.4,1-4.9,0.9-7.6-0.3c-1.8-0.8-3.3-1.8-4.5-3.1
		c-1.2-1.3-2.2-2.8-2.7-4.5c-0.6-1.7-0.8-3.5-0.8-5.4c0.1-1.9,0.5-3.9,1.4-5.9c0.6-1.4,1.3-2.6,1.9-3.5c0.7-0.9,1.3-1.6,1.9-2.2
		c0.6-0.6,1.1-1.1,1.6-1.5c0.5-0.5,0.8-1,1.1-1.5c0.2-0.5,0.3-0.9,0.3-1.2s-0.3-0.7-0.7-1.2l0.4-0.9l10.7,4.6l-0.3,0.7
		c-1.5-0.4-3.1-0.5-4.7-0.5c-1.6,0-3.1,0.3-4.5,0.8c-1.4,0.5-2.7,1.3-3.9,2.4c-1.2,1.1-2.2,2.5-2.9,4.3c-0.4,1-0.8,2.1-1,3.4
		c-0.3,1.3-0.3,2.6-0.1,3.9c0.2,1.3,0.7,2.5,1.4,3.6s1.9,2,3.5,2.7c1.3,0.5,2.5,0.7,3.6,0.6c1.1-0.2,2.2-0.5,3.1-1.1
		c1-0.6,1.9-1.3,2.8-2.2c0.9-0.9,1.7-1.8,2.5-2.7l5.5-6.5c0.6-0.7,1.3-1.5,2.2-2.6c0.9-1,2-1.9,3.3-2.7c1.3-0.8,2.7-1.3,4.4-1.5
		c1.6-0.2,3.5,0.1,5.5,0.9c1.9,0.8,3.5,1.9,4.8,3.4c1.4,1.4,2.4,3.1,3.1,5c0.7,1.9,1,4,1,6.3c-0.1,2.3-0.6,4.6-1.7,7
		c-0.4,0.9-0.7,1.6-1,2.3c-0.3,0.6-0.6,1.2-0.9,1.8c-0.3,0.5-0.7,1.1-1,1.6c-0.3,0.5-0.8,1.1-1.3,1.7c-0.6,0.7-1.2,1.5-2,2.3
		c-0.7,0.8-1.2,1.6-1.5,2.3c-0.3,0.6-0.3,1.1-0.2,1.4c0.1,0.3,0.4,0.7,0.7,1l-0.4,0.9L75.5,300.6z"/>
	<path class="st0" d="M125.6,209.2l0.5-0.6c2.1,1.1,4,1.9,5.8,2.3c1.7,0.4,3.3,0.6,4.7,0.5c1.4-0.1,2.6-0.3,3.7-0.8
		c1.1-0.4,2.1-1,2.9-1.6s1.6-1.3,2.3-2c0.6-0.7,1.2-1.4,1.8-2.1c1.5-1.8,2.5-3.5,2.9-5.2c0.4-1.6,0.5-3.1,0.3-4.5
		c-0.2-1.4-0.7-2.6-1.4-3.6c-0.7-1.1-1.5-1.9-2.3-2.6c-1.2-1-2.3-1.6-3.5-1.8c-1.2-0.2-2.4-0.3-3.5,0c-1.2,0.2-2.2,0.6-3.3,1.1
		c-1,0.5-2,1-2.7,1.6l-6.7,4.5c-3.1,2.1-6,3.3-8.5,3.6c-2.5,0.3-5-0.5-7.2-2.4c-1.5-1.2-2.7-2.7-3.5-4.3c-0.8-1.6-1.3-3.3-1.4-5.1
		c-0.1-1.8,0.2-3.6,0.8-5.4c0.6-1.8,1.6-3.6,3-5.2c1-1.2,1.9-2.1,2.8-2.8c0.9-0.6,1.7-1.2,2.4-1.5c0.7-0.4,1.4-0.7,2-1
		c0.6-0.3,1.1-0.7,1.5-1.2c0.4-0.4,0.6-0.8,0.6-1c0-0.3-0.1-0.7-0.3-1.4l0.6-0.7l9,7.4l-0.5,0.6c-1.4-0.8-2.8-1.4-4.3-1.8
		c-1.5-0.4-3-0.6-4.5-0.5c-1.5,0.1-3,0.5-4.4,1.2c-1.4,0.7-2.8,1.8-4,3.3c-0.7,0.8-1.3,1.8-1.9,3c-0.6,1.2-1,2.4-1.2,3.7
		c-0.2,1.3-0.1,2.6,0.3,3.9c0.4,1.3,1.3,2.5,2.6,3.6c1.1,0.9,2.2,1.4,3.3,1.6c1.1,0.2,2.2,0.1,3.3-0.2c1.1-0.3,2.2-0.7,3.3-1.3
		c1.1-0.6,2.1-1.2,3.1-1.9l7.1-4.7c0.7-0.5,1.7-1.1,2.9-1.8c1.2-0.7,2.5-1.3,3.9-1.7c1.4-0.4,3-0.5,4.6-0.3c1.7,0.2,3.3,1,5,2.4
		c1.6,1.3,2.8,2.8,3.7,4.6c0.9,1.8,1.4,3.7,1.6,5.7c0.1,2-0.1,4.1-0.8,6.3c-0.7,2.2-1.9,4.3-3.6,6.3c-0.6,0.7-1.1,1.4-1.6,1.9
		c-0.5,0.5-0.9,1-1.4,1.4c-0.5,0.4-0.9,0.8-1.4,1.3c-0.5,0.4-1,0.8-1.7,1.3c-0.8,0.5-1.6,1.1-2.5,1.6c-0.9,0.6-1.6,1.2-2.1,1.7
		c-0.4,0.5-0.6,1-0.6,1.3c0,0.4,0.2,0.7,0.4,1.2l-0.6,0.8L125.6,209.2z"/>
	<path class="st0" d="M175.4,172.3l5.7-4.8l-28.5-33.8l-5.7,4.8l-0.6-0.7l29.4-24.8l7.2,8.5l-0.6,0.5c-1.5-0.9-3-1.6-4.3-2.2
		c-1.3-0.5-2.6-0.8-3.9-0.9c-1.3-0.1-2.6,0.1-3.8,0.7c-1.3,0.5-2.6,1.4-4,2.5l-8.5,7.2l12.9,15.3l3.3-2.8c1.1-1,2-1.9,2.6-2.7
		c0.6-0.9,1-1.8,1.1-2.8c0.1-1,0-2.2-0.4-3.4c-0.4-1.3-1-2.8-1.9-4.6l0.6-0.5l13,15.4l-0.6,0.5c-1-0.7-2.1-1.5-3.1-2.1
		c-1-0.7-2-1.2-3.1-1.5c-1-0.3-2.1-0.3-3.2-0.1c-1.1,0.2-2.3,0.9-3.5,1.9l-4.2,3.5l15,17.8l9.7-8.2c1.9-1.6,3.1-3.3,3.7-5.1
		c0.6-1.8,0.8-3.6,0.7-5.3c-0.1-1.7-0.5-3.3-1.1-4.8c-0.6-1.5-1.2-2.6-1.7-3.5l0.6-0.5l9.1,10.8L176,173L175.4,172.3z"/>
	<path class="st0" d="M226.8,131.6l6.5-3.7l-21.8-38.4l-6.5,3.7l-0.4-0.8l33.4-19l5.5,9.7l-0.6,0.4c-1.3-1.2-2.6-2.1-3.8-2.9
		c-1.2-0.8-2.4-1.3-3.7-1.6c-1.3-0.3-2.6-0.3-3.9,0c-1.3,0.3-2.8,0.9-4.4,1.8l-9.7,5.5l9.9,17.4l3.8-2.2c1.3-0.7,2.3-1.5,3.1-2.2
		c0.8-0.7,1.3-1.6,1.6-2.6s0.4-2.1,0.2-3.5c-0.2-1.3-0.5-2.9-1-4.9l0.6-0.4l9.9,17.5l-0.6,0.4c-0.9-0.9-1.8-1.8-2.6-2.7
		c-0.9-0.8-1.8-1.5-2.8-2c-1-0.5-2-0.7-3.2-0.7c-1.1,0-2.4,0.4-3.8,1.2l-4.7,2.7l11.5,20.3l11-6.3c2.1-1.2,3.7-2.7,4.6-4.4
		c0.9-1.7,1.5-3.4,1.7-5.1c0.2-1.7,0.1-3.4-0.2-4.9c-0.3-1.6-0.7-2.8-1-3.7l0.6-0.4l7,12.3l-35.6,20.3L226.8,131.6z"/>
	<path class="st0" d="M284.3,101.1l7.1-2.4L277,56.9l-7.1,2.4l-0.3-0.9l13.6-4.7l32.9,25.9l0.1,0l-11.1-32.4l-7.1,2.4l-0.3-0.9
		l15.1-5.2l0.3,0.9l-7.1,2.4L321,90.4l-1.3,0.4l-40.8-31.8l-0.1,0l13.5,39.3l7.1-2.4l0.3,0.9l-15.1,5.2L284.3,101.1z"/>
	<path class="st0" d="M387.8,53.1c-0.1-3.4,0.5-6.6,1.9-9.6c1.3-3,3.1-5.6,5.2-7.8c2.2-2.2,4.6-4,7.4-5.3c2.7-1.3,5.5-2,8.3-2.1
		c3-0.1,5.8,0.5,8.7,1.6c2.8,1.2,5.4,2.8,7.6,4.9c2.2,2.1,4.1,4.6,5.5,7.5c1.4,2.9,2.1,6.1,2.2,9.5c0.1,3-0.5,6-1.6,8.9
		c-1.1,2.9-2.7,5.5-4.8,7.8c-2,2.3-4.5,4.2-7.3,5.6c-2.8,1.5-5.8,2.2-9.1,2.3c-3.4,0.1-6.5-0.5-9.4-1.8c-2.9-1.3-5.4-3-7.6-5.1
		c-2.1-2.2-3.8-4.7-5.1-7.6C388.6,59.2,387.9,56.2,387.8,53.1z M395.6,52.9c0.1,3.9,0.5,7.2,1.1,10.1s1.6,5.3,2.9,7.2
		c1.3,1.9,3,3.3,5,4.2c2,0.9,4.4,1.3,7.4,1.2c2.9-0.1,5.3-0.6,7.2-1.6c2-1,3.6-2.5,4.8-4.5c1.2-2,2-4.4,2.5-7.3
		c0.5-2.9,0.6-6.3,0.5-10.2c-0.1-3-0.4-5.8-0.8-8.6c-0.5-2.8-1.3-5.2-2.5-7.4c-1.2-2.1-2.8-3.8-4.9-5.1c-2.1-1.2-4.7-1.8-8-1.7
		c-3.3,0.1-5.9,0.8-7.9,2.1c-2,1.3-3.5,3.1-4.6,5.3c-1.1,2.2-1.8,4.7-2.1,7.5C395.6,47.1,395.5,49.9,395.6,52.9z"/>
	<path class="st0" d="M459.4,75.8l7.4,1.3l7.4-43.6l-7.4-1.3l0.2-0.9l14.2,2.4l16.4,38.5l0.1,0l5.8-33.8l-7.3-1.3l0.1-0.9l15.7,2.7
		l-0.1,0.9l-7.3-1.3L496.8,84l-1.3-0.2l-20.6-47.5l-0.1,0l-7,40.9l7.3,1.3l-0.1,0.9l-15.7-2.7L459.4,75.8z"/>
	<path class="st0" d="M569.3,91.9l0.7,0.3c-0.6,2.3-0.9,4.3-0.9,6.1c0,1.8,0.2,3.3,0.6,4.7c0.4,1.3,0.9,2.5,1.6,3.5
		c0.7,1,1.4,1.8,2.3,2.5c0.8,0.7,1.7,1.3,2.5,1.7c0.8,0.5,1.6,0.9,2.4,1.3c2.1,1.1,4,1.6,5.7,1.7c1.7,0.1,3.1-0.2,4.4-0.7
		c1.3-0.6,2.3-1.3,3.2-2.2c0.9-0.9,1.5-1.9,2-2.8c0.7-1.4,1-2.6,0.9-3.9c0-1.2-0.3-2.4-0.8-3.4c-0.5-1.1-1.1-2.1-1.8-2.9
		c-0.7-0.9-1.5-1.7-2.2-2.3l-5.9-5.4c-2.8-2.6-4.6-5.1-5.5-7.5c-0.9-2.4-0.7-4.9,0.6-7.6c0.9-1.7,2-3.2,3.4-4.4
		c1.4-1.2,2.9-2,4.6-2.5c1.7-0.5,3.5-0.7,5.4-0.5c1.9,0.2,3.9,0.8,5.8,1.7c1.4,0.7,2.5,1.4,3.4,2.1c0.8,0.7,1.5,1.4,2,2
		c0.5,0.6,1,1.2,1.5,1.7c0.4,0.5,0.9,0.9,1.5,1.2c0.5,0.3,0.9,0.4,1.2,0.3s0.7-0.3,1.3-0.6l0.8,0.4l-5.2,10.5l-0.7-0.4
		c0.4-1.5,0.7-3.1,0.8-4.6c0.1-1.6-0.1-3.1-0.6-4.5c-0.4-1.4-1.2-2.8-2.2-4c-1-1.2-2.4-2.3-4.1-3.1c-1-0.5-2.1-0.9-3.4-1.2
		c-1.3-0.3-2.6-0.4-3.9-0.3c-1.3,0.1-2.5,0.5-3.7,1.2c-1.2,0.7-2.1,1.8-2.9,3.3c-0.6,1.2-0.9,2.4-0.8,3.5c0.1,1.1,0.4,2.2,0.9,3.2
		c0.5,1,1.2,2,2,2.9c0.8,0.9,1.7,1.8,2.6,2.6l6.2,5.8c0.6,0.6,1.5,1.4,2.4,2.4c1,1,1.8,2.1,2.5,3.4c0.7,1.3,1.2,2.8,1.3,4.5
		c0.2,1.7-0.3,3.5-1.2,5.4c-0.9,1.8-2.1,3.4-3.6,4.7c-1.5,1.3-3.2,2.2-5.2,2.8c-1.9,0.6-4,0.8-6.3,0.6c-2.3-0.2-4.6-0.9-6.9-2
		c-0.8-0.4-1.6-0.8-2.2-1.1c-0.6-0.3-1.2-0.7-1.7-1c-0.5-0.4-1-0.7-1.6-1.1c-0.5-0.4-1.1-0.8-1.7-1.4c-0.7-0.6-1.4-1.3-2.2-2.1
		c-0.8-0.8-1.5-1.3-2.2-1.7c-0.6-0.3-1.1-0.4-1.4-0.3c-0.3,0.1-0.7,0.3-1,0.6l-0.9-0.4L569.3,91.9z"/>
	<path class="st0" d="M632.1,115.5c2.1-2.7,4.6-4.8,7.5-6.3c2.9-1.5,5.9-2.4,8.9-2.8c3.1-0.4,6.1-0.2,9,0.5c3,0.7,5.5,1.9,7.7,3.6
		c2.4,1.8,4.3,4,5.7,6.7c1.5,2.7,2.4,5.5,2.9,8.6s0.3,6.1-0.4,9.3c-0.7,3.1-2.1,6.1-4.2,8.8c-1.8,2.4-4.1,4.4-6.8,5.9
		c-2.7,1.6-5.6,2.6-8.6,3.1c-3,0.5-6.1,0.4-9.2-0.2c-3.1-0.6-5.9-1.9-8.5-3.9c-2.7-2-4.7-4.5-6.2-7.3c-1.5-2.8-2.4-5.7-2.7-8.7
		c-0.3-3-0.1-6.1,0.8-9.1C628.9,120.7,630.2,118,632.1,115.5z M638.2,120.2c-2.4,3.1-4.2,5.9-5.5,8.6c-1.3,2.6-2.1,5.1-2.3,7.4
		c-0.2,2.3,0.2,4.4,1.2,6.4c1,2,2.6,3.8,5,5.6c2.3,1.7,4.5,2.8,6.7,3.3c2.2,0.5,4.3,0.3,6.5-0.5c2.2-0.8,4.4-2.2,6.5-4.1
		c2.2-2,4.4-4.5,6.8-7.6c1.8-2.4,3.4-4.8,4.8-7.2c1.4-2.5,2.2-4.9,2.7-7.3c0.4-2.4,0.2-4.8-0.6-7c-0.8-2.3-2.6-4.4-5.2-6.4
		c-2.6-2-5.1-3.1-7.5-3.3c-2.4-0.2-4.7,0.2-6.9,1.2c-2.2,1-4.3,2.5-6.3,4.5C641.9,115.7,640,117.8,638.2,120.2z"/>
	<path class="st0" d="M701.7,211.3l-0.7-0.8c0.1-0.5,0-0.9,0-1.4c-0.1-0.5-0.4-1-0.9-1.7c-0.4-0.5-1-1-1.7-1.4
		c-0.7-0.4-1.5-0.9-2.4-1.5c-0.9-0.6-1.8-1.2-2.8-2c-1-0.8-2-1.8-3-2.9c-1.9-2.1-3.3-4.5-4.3-7.2c-1-2.7-1.5-5.6-1.4-8.9
		c0.1-3,0.8-6.1,2-9.1c1.2-3,3.2-5.8,6-8.3c2.4-2.1,5.1-3.7,8.1-4.8c3-1,6-1.5,9.1-1.4c3.1,0.1,6.1,0.9,9,2.2
		c2.9,1.3,5.5,3.3,7.8,5.9c0.9,1,1.6,2,2.2,3c0.5,1,0.9,1.9,1.3,2.7c0.3,0.8,0.6,1.6,0.9,2.3c0.3,0.7,0.6,1.3,1.1,1.8
		c0.6,0.7,1.1,1.1,1.6,1.2c0.5,0.1,0.9,0.2,1.4,0.2l0.7,0.8l-9.7,8.5l-0.5-0.6c1-1.4,1.8-2.8,2.6-4.4c0.8-1.5,1.3-3.1,1.4-4.8
		c0.2-1.7,0-3.4-0.6-5.2c-0.6-1.8-1.7-3.6-3.4-5.6c-1.6-1.8-3.2-3.1-4.8-3.9c-1.7-0.8-3.3-1.3-5-1.3c-1.7-0.1-3.3,0.1-4.9,0.6
		c-1.6,0.5-3.2,1.2-4.8,2.1c-1.5,0.9-3,1.9-4.4,3c-1.4,1.1-2.7,2.2-3.9,3.2c-3.4,3-5.9,5.8-7.7,8.3c-1.7,2.5-2.8,4.9-3.2,7.1
		c-0.4,2.2-0.2,4.2,0.6,6.1c0.8,1.9,1.9,3.7,3.4,5.5c2,2.2,3.9,3.8,5.7,4.6c1.8,0.8,3.6,1.2,5.3,1.2c1.7,0,3.4-0.4,5-1
		c1.6-0.7,3.2-1.4,4.7-2.1l0.5,0.6L701.7,211.3z"/>
	<path class="st0" d="M716.4,230.6l4,6.3l37.3-23.7l-4-6.3l0.8-0.5l11.6,18.2l-0.8,0.5l-4-6.3L724,242.6l4,6.3l-0.8,0.5l-11.6-18.2
		L716.4,230.6z"/>
	<path class="st0" d="M738.7,266.7l2.3,5.4l49.7-1.7l0.6,1.5l-35.2,35.1l2.4,5.5l-0.8,0.4l-8.2-19l0.8-0.4l3,6.8l13.7-13.6
		l-6.2-14.3l-19.3,0.7l3,6.8l-0.8,0.4l-5.7-13.3L738.7,266.7z M782,271.8l-20.2,0.7l5.9,13.6L782,271.8z"/>
	<path class="st0" d="M764.4,331.9l1.6,7.3l43.1-9.7l-1.6-7.3l0.9-0.2l4.7,21.1l-0.9,0.2l-1.6-7.3l-43.1,9.7l2.6,11.7
		c0.9,3.8,2.7,6.6,5.5,8.3c2.8,1.7,6.3,2.5,10.5,2.7l0.2,0.7l-13.8,3.1l-9-40L764.4,331.9z"/>
</g>
</svg>
