<?xml version="1.0" encoding="utf-8"?>
<!-- Generator: Adobe Illustrator 21.1.0, SVG Export Plug-In . SVG Version: 6.00 Build 0)  -->
<svg version="1.1" id="Layer_1" xmlns="http://www.w3.org/2000/svg" xmlns:xlink="http://www.w3.org/1999/xlink" x="0px" y="0px"
	 viewBox="0 0 841.9 405" style="enable-background:new 0 0 841.9 405;" xml:space="preserve">
<g>
	<g>
		<path d="M87.8,368.6c-3-0.3-5.7-1.2-8.2-2.8c-2.4-1.5-4.5-3.3-6.1-5.5c-1.7-2.1-2.9-4.5-3.7-7c-0.8-2.5-1.1-5-0.8-7.5
			c0.3-2.6,1.1-5,2.4-7.4c1.3-2.3,3.1-4.3,5.1-6.1s4.5-3,7.2-3.9s5.5-1.2,8.5-0.8c2.6,0.3,5.2,1.1,7.6,2.4s4.5,3,6.2,5.1
			c1.8,2.1,3.1,4.4,4,7s1.2,5.4,0.9,8.2c-0.3,2.9-1.2,5.6-2.6,8s-3.2,4.4-5.4,6c-2.1,1.6-4.5,2.8-7.2,3.5
			C93.2,368.7,90.5,368.9,87.8,368.6z M88.5,361.9c3.4,0.4,6.4,0.5,8.9,0.3c2.6-0.2,4.8-0.7,6.6-1.7c1.8-0.9,3.2-2.2,4.2-3.8
			c1-1.6,1.7-3.7,1.9-6.3c0.3-2.5,0.1-4.7-0.5-6.5s-1.7-3.4-3.3-4.7c-1.6-1.3-3.6-2.3-6.1-3s-5.4-1.3-8.8-1.7
			c-2.6-0.3-5.1-0.4-7.6-0.3s-4.7,0.5-6.7,1.3s-3.7,2-5,3.7s-2.1,3.9-2.5,6.8c-0.3,2.9,0,5.2,0.9,7.1s2.3,3.5,4.1,4.7
			c1.8,1.2,3.9,2.1,6.3,2.7C83.5,361.1,86,361.6,88.5,361.9z"/>
		<path d="M114,317l1.5-5l-34.6-26.7l0.4-1.4l43.5-4l1.5-5l0.8,0.2l-5.1,17.5l-0.8-0.2l1.8-6.3l-16.9,1.5l-3.8,13.2l13.4,10.4
			l1.8-6.3l0.8,0.2l-3.6,12.2L114,317z M87.6,289.3l14,10.9l3.6-12.5L87.6,289.3z"/>
		<path d="M131,263.3l2.9-5.9L99,240.3l-2.9,5.9l-0.7-0.4l5-10.1c0.2-0.4,0.4-0.9,0.6-1.3c0.2-0.4,0.4-0.9,0.5-1.3
			c0.2-0.4,0.4-0.8,0.6-1.3c0.2-0.4,0.4-0.9,0.6-1.3c1-2.1,2-3.9,3-5.3c1-1.5,2.4-2.7,4.1-3.5c1.5-0.8,3-1.1,4.4-1.1
			c1.4,0.1,2.6,0.3,3.6,0.8c0.5,0.3,1.1,0.7,1.8,1.3c0.7,0.6,1.3,1.4,1.8,2.5s0.8,2.4,0.9,4s-0.3,3.5-1,5.6l0.1,0.1
			c0.3-0.5,0.8-1.2,1.5-2.1c0.7-0.9,1.5-1.7,2.4-2.5s2-1.4,3.1-1.9c1.1-0.5,2.4-0.6,3.7-0.4c0.8,0.1,1.6,0.4,2.5,0.7
			s1.8,0.7,2.8,1.1c0.9,0.4,1.9,0.8,2.7,1.1c0.9,0.4,1.6,0.6,2.3,0.8c1,0.2,2,0.3,2.9,0.2s1.7-0.7,2.2-1.7c0.2-0.5,0.4-1,0.5-1.6
			s0-1.2-0.2-1.7l0.8-0.2c0.1,0.2,0.1,0.5,0.1,0.8s0,0.7,0,1.1c0,0.4-0.1,0.9-0.3,1.5s-0.4,1.2-0.8,1.9c-0.7,1.4-1.4,2.5-2.2,3.3
			s-1.7,1.3-2.6,1.5c-0.9,0.2-2,0.3-3.1,0c-1.1-0.2-2.3-0.6-3.7-1.1l-4.8-1.9c-1.8-0.7-3.3-1-4.5-0.9s-2.3,0.4-3.1,1
			c-0.8,0.5-1.5,1.2-2,2s-0.9,1.5-1.2,2.1l-2.6,5.3l18.4,9l2.9-5.9l0.7,0.4l-8.4,17.1L131,263.3z M117.4,242.7l2.4-4.9
			c0.5-1,0.8-2,1-2.9s0.1-1.8-0.2-2.7c-0.3-0.9-0.9-1.7-1.8-2.5s-2.1-1.6-3.6-2.4c-1.8-0.9-3.3-1.3-4.6-1.4
			c-1.3-0.1-2.4,0.2-3.3,0.7s-1.7,1.2-2.3,2c-0.6,0.9-1.2,1.7-1.6,2.7c-0.3,0.6-0.6,1.3-0.9,1.9c-0.3,0.7-0.5,1.2-0.7,1.7
			L117.4,242.7z"/>
		<path d="M147.2,205.3l6.2-9.1l3.1,2.1l-6.2,9.1L147.2,205.3z"/>
		<path d="M187.7,157.6l0.5-0.4c1.7,1.2,3.3,2.1,4.8,2.6c1.5,0.6,2.8,0.9,4,1s2.3,0,3.3-0.2c1-0.3,1.9-0.6,2.7-1.1s1.6-1,2.2-1.5
			c0.6-0.6,1.2-1.1,1.8-1.6c1.5-1.4,2.6-2.8,3.1-4.2c0.6-1.4,0.8-2.6,0.8-3.9c-0.1-1.2-0.3-2.3-0.8-3.3s-1.1-1.8-1.7-2.5
			c-0.9-1-1.9-1.6-2.9-2c-1-0.3-2-0.5-3.1-0.4c-1,0.1-2,0.2-3,0.6c-1,0.3-1.8,0.7-2.6,1.1l-6.3,3.2c-3,1.5-5.6,2.2-7.8,2.2
			c-2.3,0-4.3-1-6.1-2.9c-1.2-1.2-2-2.6-2.5-4.1s-0.8-3-0.6-4.6c0.1-1.6,0.5-3.1,1.3-4.6s1.8-2.9,3.2-4.2c1-0.9,1.9-1.6,2.8-2.1
			c0.8-0.5,1.6-0.8,2.3-1.1c0.7-0.3,1.3-0.5,1.8-0.7s1-0.5,1.4-0.9c0.4-0.3,0.6-0.6,0.6-0.9c0-0.2,0-0.6-0.1-1.2l0.6-0.6l7,7.5
			l-0.5,0.5c-1.1-0.8-2.3-1.5-3.6-2.1c-1.3-0.5-2.6-0.8-3.9-0.9c-1.3-0.1-2.7,0.1-4,0.5s-2.6,1.2-3.9,2.4c-0.7,0.6-1.4,1.4-2,2.4
			c-0.7,1-1.2,2-1.5,3.1s-0.4,2.3-0.2,3.4c0.2,1.2,0.8,2.3,1.9,3.4c0.8,0.9,1.7,1.5,2.7,1.7c1,0.3,1.9,0.4,2.9,0.2
			c1-0.1,2-0.4,3-0.8c1-0.4,2-0.8,2.9-1.3l6.7-3.3c0.7-0.3,1.6-0.8,2.7-1.3c1.1-0.5,2.3-0.8,3.6-1s2.7-0.1,4.1,0.3
			c1.4,0.4,2.8,1.3,4.1,2.7c1.2,1.3,2.1,2.8,2.7,4.4c0.6,1.6,0.8,3.4,0.7,5.1c-0.1,1.8-0.6,3.6-1.4,5.4c-0.8,1.8-2.1,3.5-3.8,5.1
			c-0.6,0.6-1.1,1.1-1.6,1.5s-0.9,0.8-1.4,1.1s-0.9,0.6-1.4,0.9c-0.5,0.3-1,0.6-1.6,0.9c-0.7,0.4-1.5,0.8-2.4,1.2s-1.5,0.8-2,1.3
			c-0.4,0.4-0.7,0.8-0.7,1.1s0.1,0.7,0.2,1l-0.6,0.6L187.7,157.6z"/>
		<path d="M208.5,101.4l15.9-10.5l0.4,0.7l-5.5,3.6l15.1,22.9c1.3,1.9,2.5,3.4,3.7,4.5s2.4,1.8,3.7,2.1c1.2,0.4,2.5,0.4,3.7,0
			c1.2-0.3,2.5-0.9,3.8-1.8c1.8-1.2,3.3-2.6,4.4-4c1.1-1.5,1.7-3.2,1.8-5.2c0.1-0.6,0.1-1.2,0-1.8s-0.1-1.2-0.3-1.9
			c-0.2-0.7-0.5-1.4-0.9-2.3c-0.4-0.8-1-1.8-1.7-3l-14.6-22l-5.5,3.6l-0.4-0.7l11.7-7.7l0.4,0.7l-5.5,3.6l15.2,23
			c0.9,1.3,1.5,2.6,2,3.9c0.4,1.3,0.6,2.8,0.4,4.6c-0.1,1.7-0.8,3.5-1.9,5.2c-1.1,1.7-3,3.5-5.6,5.2c-3.9,2.6-7.6,3.7-10.9,3.2
			c-3.3-0.5-6.2-2.7-8.8-6.5l-14.8-22.4l-5.5,3.6L208.5,101.4z M225.1,81.2c-0.4-0.6-0.5-1.3-0.4-2c0.2-0.7,0.6-1.3,1.2-1.7
			c0.6-0.4,1.3-0.6,2-0.4c0.7,0.1,1.3,0.5,1.7,1.1s0.5,1.3,0.4,2c-0.2,0.7-0.6,1.3-1.2,1.7c-0.6,0.4-1.3,0.6-2,0.4
			C226,82.2,225.5,81.9,225.1,81.2z M215.9,87.3c-0.4-0.6-0.5-1.3-0.4-2c0.2-0.7,0.6-1.3,1.2-1.7c0.6-0.4,1.3-0.6,2-0.4
			c0.7,0.1,1.3,0.5,1.7,1.1s0.5,1.3,0.4,2c-0.2,0.7-0.6,1.3-1.2,1.7c-0.6,0.4-1.3,0.6-2,0.4C216.9,88.3,216.3,87.9,215.9,87.3z"/>
		<path d="M277.5,104.8l6-2.6L268,66.6l-6,2.6l-0.3-0.7l11.6-5.1L304,83.8h0.1l-12-27.6l-6,2.6l-0.3-0.7l12.8-5.6l0.3,0.7l-6,2.6
			L309,92.9l-1.1,0.5l-38-25h-0.1l14.6,33.5l6-2.6l0.3,0.7l-12.8,5.6L277.5,104.8z"/>
		<path d="M327.4,84.2l6.4-1.5l-8.9-37.8l-6.4,1.5l-0.2-0.8l10.7-2.5c0.5-0.1,1.1-0.3,1.6-0.4c0.5-0.1,1.1-0.3,1.6-0.5
			c0.5-0.1,1.1-0.3,1.6-0.4c0.5-0.1,1.1-0.3,1.6-0.4c1.1-0.3,2.2-0.5,3.1-0.7s1.8-0.3,2.6-0.4c0.8-0.1,1.6-0.1,2.3-0.1
			c0.7,0,1.6,0,2.4,0.1c2.5,0.2,4.8,0.7,6.8,1.5s3.7,1.9,5.2,3.3c1.5,1.4,2.7,2.9,3.7,4.7s1.7,3.7,2.2,5.8c0.6,2.4,0.8,4.7,0.6,6.8
			c-0.2,2.1-0.6,4-1.3,5.7c-0.7,1.7-1.7,3.3-2.9,4.8c-1.2,1.4-2.5,2.7-4,3.7c-0.8,0.6-1.6,1.1-2.4,1.6c-0.8,0.4-1.6,0.8-2.4,1.1
			c-0.8,0.3-1.8,0.6-2.8,0.9s-2.2,0.6-3.5,0.9c-0.6,0.1-1.2,0.3-1.8,0.4c-0.7,0.1-1.3,0.3-2,0.4s-1.3,0.2-1.9,0.4
			c-0.6,0.1-1.2,0.3-1.8,0.4l-9.8,2.3L327.4,84.2z M339.5,81.4c0.7-0.1,1.4-0.2,2.3-0.4c0.9-0.2,1.8-0.4,2.9-0.6
			c1.3-0.3,2.6-0.7,3.8-1.1c1.3-0.4,2.4-1,3.5-1.7s2-1.6,2.8-2.6s1.5-2.3,2-3.8c0.8-2.3,1.1-4.5,1.1-6.7c0-2.2-0.3-4.5-0.9-7
			c-0.7-2.9-1.6-5.5-2.7-7.7s-2.6-4-4.3-5.4c-1.7-1.4-3.8-2.3-6.2-2.7c-2.4-0.4-5.2-0.2-8.4,0.5c-1,0.2-1.8,0.4-2.6,0.7
			s-1.5,0.4-2.2,0.6L339.5,81.4z"/>
		<path d="M417,57.4l11,0.1v3.8l-11-0.1V57.4z"/>
		<path d="M473.9,74.8l6.4,1.5l8.9-37.8l-6.4-1.5l0.2-0.8l32.9,7.7l-2.2,9.6l-0.6-0.1c-0.2-1.6-0.4-2.9-0.7-4.2
			c-0.3-1.2-0.8-2.3-1.4-3.2s-1.5-1.7-2.5-2.4c-1-0.6-2.3-1.1-3.9-1.5l-9.5-2.2l-4,17.1l3.7,0.9c1.3,0.3,2.4,0.4,3.3,0.4
			s1.8-0.3,2.6-0.7c0.8-0.5,1.5-1.2,2.2-2.1c0.7-0.9,1.4-2.2,2.2-3.8l0.6,0.1l-4,17.2l-0.6-0.1c0-1.1-0.1-2.2-0.1-3.3
			c-0.1-1.1-0.3-2-0.6-2.9c-0.3-0.9-0.9-1.7-1.6-2.3c-0.8-0.7-1.8-1.2-3.2-1.5l-4.7-1.1l-4.7,20l10.9,2.5c2.1,0.5,4,0.5,5.6-0.1
			c1.6-0.5,3-1.3,4.1-2.3c1.2-1,2.1-2.1,2.8-3.3c0.7-1.2,1.2-2.2,1.6-3l0.6,0.1L509,83.8l-35.1-8.2L473.9,74.8z"/>
		<path d="M534.1,91.9l6,2.5l6.3-15l-3.5-25.9l-5-2.1l0.3-0.7l16.7,7l-0.3,0.7l-5.4-2.3l3.1,23l18-14.1l-5.5-2.3l0.3-0.7l11.6,4.9
			l-0.3,0.7l-5.3-2.2L552.6,80l-7,16.7l6,2.5l-0.3,0.7l-17.5-7.4L534.1,91.9z"/>
		<path d="M572.5,109.4l5.5,3.5l20.8-32.8l-5.5-3.5l0.4-0.7L622.3,94l-5.3,8.3l-0.5-0.4c0.4-1.5,0.6-2.9,0.7-4.2
			c0.1-1.3,0-2.4-0.3-3.5s-0.8-2.1-1.6-3s-1.8-1.8-3.2-2.7l-8.3-5.3L594.4,98l3.2,2.1c1.1,0.7,2.1,1.2,3,1.5s1.8,0.4,2.7,0.2
			c0.9-0.2,1.8-0.6,2.8-1.3c1-0.7,2.1-1.6,3.4-2.8L610,98l-9.5,14.9l-0.6-0.4c0.4-1.1,0.7-2.1,1-3.1s0.4-2,0.4-3s-0.3-1.9-0.8-2.7
			c-0.5-0.9-1.3-1.7-2.5-2.5l-4-2.6L583,116l9.4,6c1.8,1.2,3.6,1.8,5.3,1.8s3.2-0.2,4.7-0.8c1.4-0.6,2.7-1.3,3.7-2.2
			c1.1-0.9,1.9-1.7,2.5-2.3l0.5,0.3l-6.7,10.5L572.1,110L572.5,109.4z"/>
		<path d="M644.4,147.6l20.5,21.3l-0.6,0.6l-20.5-21.3L644.4,147.6z"/>
		<path d="M681.3,209.4l3.3,5.7l33.5-19.6l-3.3-5.7l0.7-0.4l5.7,9.7c0.2,0.4,0.5,0.8,0.7,1.2c0.3,0.4,0.5,0.8,0.8,1.2
			c0.2,0.4,0.5,0.8,0.7,1.2c0.3,0.4,0.5,0.8,0.7,1.2c1.2,2,2.1,3.8,2.8,5.5s0.9,3.4,0.7,5.4c-0.2,1.7-0.7,3.1-1.5,4.3
			c-0.8,1.1-1.7,2-2.7,2.6c-0.5,0.3-1.2,0.6-2.1,0.8c-0.9,0.3-1.9,0.3-3.1,0.2c-1.2-0.2-2.4-0.6-3.8-1.4c-1.4-0.8-2.7-2.1-4.1-4
			l-0.1,0.1c0.3,0.6,0.6,1.4,0.9,2.4c0.4,1,0.6,2.2,0.8,3.4c0.1,1.2,0.1,2.4-0.1,3.7c-0.2,1.2-0.8,2.3-1.7,3.3
			c-0.5,0.6-1.2,1.2-2,1.7c-0.8,0.6-1.6,1.1-2.5,1.7c-0.9,0.6-1.7,1.1-2.5,1.6s-1.4,1-1.9,1.5c-0.7,0.7-1.3,1.5-1.7,2.3
			s-0.4,1.8,0.2,2.7c0.3,0.4,0.6,0.9,1.1,1.2c0.4,0.4,1,0.7,1.5,0.8l-0.3,0.8c-0.2-0.1-0.5-0.2-0.8-0.3s-0.6-0.3-0.9-0.6
			c-0.3-0.3-0.7-0.6-1-1.1c-0.4-0.4-0.8-1-1.2-1.7c-0.8-1.4-1.3-2.6-1.5-3.7c-0.2-1.1-0.1-2.1,0.2-3s0.9-1.8,1.7-2.6
			s1.8-1.6,2.9-2.4l4.3-3c1.6-1.1,2.6-2.2,3.2-3.3c0.6-1.1,0.9-2.1,0.9-3.1s-0.2-1.9-0.6-2.7c-0.4-0.8-0.7-1.5-1.1-2.1l-3-5.1
			l-17.7,10.3l3.3,5.7l-0.7,0.4l-9.6-16.4L681.3,209.4z M706,209.4l2.7,4.7c0.6,1,1.2,1.8,1.9,2.4c0.7,0.6,1.5,1.1,2.4,1.3
			s1.9,0.2,3.1-0.1c1.2-0.3,2.5-0.8,4-1.7c1.7-1,2.9-2,3.7-3.1s1.2-2.1,1.3-3.1s0-2.1-0.4-3c-0.4-1-0.8-1.9-1.3-2.8
			c-0.4-0.6-0.7-1.2-1.1-1.8c-0.4-0.6-0.7-1.1-1.1-1.5L706,209.4z"/>
		<path d="M707,256.7l2.5,6.1l35.9-14.7l-2.5-6.1l0.7-0.3l7.2,17.6l-0.7,0.3l-2.5-6.1l-35.9,14.7l2.5,6.1l-0.7,0.3l-7.2-17.6
			L707,256.7z"/>
		<path d="M731.1,287.9l0.2,0.6c-1.9,0.9-3.4,1.9-4.6,2.9c-1.2,1-2.1,2-2.8,3.1c-0.7,1-1.1,2-1.4,3c-0.2,1-0.4,2-0.4,2.9
			c0,1,0.1,1.8,0.3,2.7c0.2,0.8,0.4,1.6,0.5,2.3c0.5,2,1.3,3.6,2.2,4.7s1.9,2,3,2.5s2.2,0.8,3.3,0.8s2.1-0.1,3-0.3
			c1.3-0.3,2.3-0.9,3.1-1.6s1.4-1.6,1.8-2.5c0.4-0.9,0.7-1.9,0.9-2.9s0.3-1.9,0.3-2.8l0.2-7.1c0.1-3.3,0.7-6,1.8-7.9
			c1.1-2,2.9-3.3,5.4-3.9c1.7-0.4,3.3-0.5,4.8-0.3s3,0.8,4.3,1.6c1.3,0.8,2.5,2,3.4,3.3c1,1.4,1.7,3,2.2,4.8
			c0.4,1.3,0.5,2.5,0.5,3.4c0,1,0,1.8-0.1,2.5s-0.2,1.4-0.3,1.9c-0.1,0.6-0.1,1.1,0.1,1.7c0.1,0.5,0.3,0.8,0.5,0.9s0.6,0.3,1.1,0.5
			l0.2,0.8l-9.9,2.6l-0.2-0.7c1.3-0.6,2.4-1.3,3.5-2.2c1.1-0.9,2-1.9,2.7-3s1.2-2.4,1.4-3.8s0.2-2.9-0.3-4.5
			c-0.2-0.9-0.6-1.9-1.1-2.9s-1.2-2-2-2.8s-1.8-1.4-2.9-1.8c-1.1-0.4-2.4-0.4-3.9,0c-1.2,0.3-2.1,0.8-2.8,1.5s-1.2,1.5-1.6,2.5
			c-0.4,0.9-0.6,1.9-0.8,3c-0.1,1.1-0.2,2.1-0.3,3.2l-0.3,7.5c0,0.8-0.1,1.8-0.2,3c-0.1,1.2-0.4,2.4-0.8,3.7
			c-0.5,1.2-1.2,2.4-2.2,3.4c-1,1.1-2.5,1.8-4.3,2.3c-1.7,0.4-3.5,0.5-5.2,0.3c-1.7-0.3-3.4-0.9-4.9-1.8c-1.5-1-2.9-2.2-4-3.8
			c-1.2-1.6-2.1-3.5-2.6-5.8c-0.2-0.8-0.4-1.5-0.5-2.1s-0.2-1.2-0.3-1.8s-0.1-1.1-0.2-1.7c0-0.6-0.1-1.2,0-1.9
			c0-0.8,0.1-1.7,0.1-2.7c0.1-1,0-1.8-0.2-2.4s-0.4-0.9-0.6-1.1c-0.3-0.2-0.6-0.3-1-0.3l-0.2-0.9L731.1,287.9z"/>
		<path d="M742.5,338.7l0.1,0.6c-2,0.6-3.7,1.3-5,2.2c-1.3,0.8-2.4,1.7-3.2,2.6s-1.5,1.8-1.9,2.8c-0.4,0.9-0.7,1.9-0.8,2.8
			s-0.2,1.8-0.2,2.7c0,0.8,0.1,1.6,0.2,2.4c0.2,2.1,0.6,3.8,1.4,5c0.7,1.3,1.6,2.3,2.6,3s2,1.2,3.1,1.4c1.1,0.2,2.1,0.3,3,0.2
			c1.3-0.1,2.4-0.5,3.3-1.1c0.9-0.6,1.6-1.3,2.2-2.2c0.6-0.8,1-1.7,1.4-2.7c0.3-1,0.6-1.9,0.7-2.7l1.4-6.9c0.7-3.3,1.7-5.8,3.1-7.5
			c1.4-1.8,3.4-2.8,6-3c1.7-0.2,3.3,0,4.8,0.5s2.8,1.3,4,2.3s2.1,2.3,2.9,3.9c0.7,1.5,1.2,3.2,1.4,5.1c0.1,1.4,0.1,2.5,0,3.5
			c-0.1,0.9-0.3,1.8-0.5,2.5s-0.4,1.3-0.6,1.9c-0.2,0.6-0.2,1.1-0.2,1.6s0.1,0.8,0.3,1c0.1,0.2,0.5,0.4,1.1,0.6l0.1,0.8l-10.2,0.9
			l-0.1-0.7c1.3-0.4,2.6-0.9,3.8-1.6s2.3-1.5,3.1-2.5c0.9-1,1.6-2.1,2-3.5c0.5-1.3,0.6-2.8,0.5-4.5c-0.1-0.9-0.3-2-0.7-3.1
			s-0.9-2.1-1.6-3.1c-0.7-0.9-1.6-1.7-2.6-2.2c-1-0.6-2.3-0.8-3.8-0.6c-1.2,0.1-2.2,0.5-3,1c-0.8,0.6-1.5,1.3-2,2.2
			c-0.5,0.9-0.9,1.8-1.2,2.8s-0.6,2.1-0.8,3.1l-1.5,7.3c-0.2,0.8-0.4,1.7-0.6,2.9c-0.3,1.2-0.7,2.3-1.4,3.5c-0.7,1.1-1.6,2.2-2.7,3
			c-1.2,0.9-2.7,1.4-4.6,1.6c-1.8,0.2-3.5,0-5.2-0.6c-1.7-0.5-3.2-1.4-4.5-2.6s-2.5-2.7-3.4-4.4c-0.9-1.8-1.5-3.8-1.7-6.1
			c-0.1-0.8-0.1-1.5-0.2-2.2c0-0.6,0-1.2,0-1.8c0-0.6,0.1-1.1,0.1-1.7s0.1-1.2,0.3-1.9c0.2-0.8,0.3-1.7,0.6-2.6
			c0.2-0.9,0.3-1.7,0.2-2.4c-0.1-0.6-0.2-1-0.5-1.2c-0.2-0.2-0.6-0.4-1-0.5l-0.1-0.9L742.5,338.7z"/>
	</g>
</g>
</svg>
