<?xml version="1.0" encoding="utf-8"?>
<!-- Generator: Adobe Illustrator 23.0.0, SVG Export Plug-In . SVG Version: 6.00 Build 0)  -->
<svg version="1.1" id="Layer_1" xmlns="http://www.w3.org/2000/svg" xmlns:xlink="http://www.w3.org/1999/xlink" x="0px" y="0px"
	 viewBox="0 0 204.2 190.4" style="enable-background:new 0 0 204.2 190.4;" xml:space="preserve">
<style type="text/css">
	.st0{fill:#231F20;}
	.st1{font-family:'Didot';}
	.st2{font-size:15.5024px;}
	.st3{font-size:15.49px;}
	.st4{font-size:15.4186px;}
	.st5{font-size:15.5225px;}
	.st6{font-size:15.4877px;}
	.st7{font-size:15.4473px;}
	.st8{font-size:15.5796px;}
	.st9{font-size:15.4481px;}
	.st10{font-size:15.5179px;}
	.st11{font-size:15.4931px;}
</style>
<title>oarsundeyeriss</title>
<text transform="matrix(3.996804e-02 -1.0392 0.9992 3.996804e-02 13.5997 108.4109)" class="st0 st1 st2">O</text>
<text transform="matrix(0.2237 -1.0157 0.9766 0.2151 14.5302 92.5898)" class="st0 st1 st3">A</text>
<text transform="matrix(0.4019 -0.9644 0.9243 0.3818 17.9801 78.1498)" class="st0 st1 st4">R</text>
<text transform="matrix(0.6087 -0.8382 0.8083 0.5888 27.7611 58.2603)" class="st0 st1 st5">–</text>
<text transform="matrix(0.7907 -0.6756 0.6496 0.7603 39.59 43.8804)" class="st0 st1 st3">S</text>
<text transform="matrix(0.8901 -0.5301 0.5101 0.8601 50.0998 35.1401)" class="st0 st1 st6">Ü</text>
<text transform="matrix(0.9727 -0.371 0.361 0.9326 63.2401 27.6096)" class="st0 st1 st7">N</text>
<text transform="matrix(1.0224 -0.1906 0.1833 0.9831 76.8897 22.6102)" class="st0 st1 st3">D</text>
<text transform="matrix(1.0385 5.606071e-02 -5.390453e-02 0.9985 100.3503 19.9201)" class="st0 st1 st3">–</text>
<text transform="matrix(0.9843 0.3082 -0.2983 0.9545 118.8498 22.1013)" class="st0 st1 st8">E</text>
<text transform="matrix(0.9325 0.4713 -0.4512 0.8924 132.42 26.5504)" class="st0 st1 st9">Y</text>
<text transform="matrix(0.8366 0.6179 -0.5941 0.8044 145.0389 33.2198)" class="st0 st1 st3">E</text>
<text transform="matrix(0.6685 0.7967 -0.766 0.6428 161.7303 47.3402)" class="st0 st1 st3">–</text>
<text transform="matrix(0.4592 0.9283 -0.8984 0.4392 172.8905 62.2701)" class="st0 st1 st10">R</text>
<text transform="matrix(0.326 0.9876 -0.9496 0.3135 179 75.5294)" class="st0 st1 st3">I</text>
<text transform="matrix(0.189 1.0227 -0.9834 0.1817 181.86 84.349)" class="st0 st1 st3">S</text>
<text transform="matrix(1.999600e-02 1.0398 -0.9998 1.999600e-02 184.1096 97.8499)" class="st0 st1 st11">S</text>
</svg>
